#N canvas 952 0 1920 966 10;
#X obj 20 60 oscparse;
#X obj 20 100 list trim;
#X obj 229 101 route slider1 slider2 slider3 slider4 toggle1 toggle2 toggle3 button1 button2 button3 slider2Dx slider2Dy gridToggle1 gridToggle2 gridToggle3 gridToggle4 gridToggle5 gridToggle6 gridToggle7 gridToggle8 gridToggle9 gridToggle10 gridToggle11 gridToggle12 gridToggle13 gridToggle14 gridToggle15 gridToggle16 gridToggle17 gridToggle18 gridToggle19 gridToggle20 gridToggle21 gridToggle22 gridToggle23 gridToggle24 gridButton1 gridButton2 gridButton3 gridButton4 gridButton5 gridButton6 gridButton7 gridButton8 gridButton9 gridButton10 gridButton11 gridButton12 gridButton13 gridButton14 gridButton15 gridButton16 gridButton17 gridButton18 gridButton19 gridButton20 gridButton21 gridButton22 gridButton23 gridButton24, f 243;
#X obj 148 146 float;
#X obj 1720 163 s slider1;
#X obj 150 174 float;
#X obj 1720 193 s slider2;
#X obj 150 204 float;
#X obj 1720 223 s slider3;
#X obj 150 234 float;
#X obj 1720 253 s slider4;
#X obj 236 262 int;
#X obj 1720 283 s toggle1;
#X obj 236 292 int;
#X obj 1720 313 s toggle2;
#X obj 236 322 int;
#X obj 1720 343 s toggle3;
#X obj 236 352 int;
#X obj 1720 373 s button1;
#X obj 236 382 int;
#X obj 1720 403 s button2;
#X obj 236 412 int;
#X obj 1720 433 s button3;
#X obj 234 462 float;
#X obj 1720 463 s slider2Dx;
#X obj 234 492 float;
#X obj 1720 493 s slider2Dy;
#X obj 234 528 int;
#X obj 1720 523 s gridToggle1;
#X obj 234 558 int;
#X obj 1720 553 s gridToggle2;
#X obj 234 588 int;
#X obj 1720 583 s gridToggle3;
#X obj 234 618 int;
#X obj 1720 613 s gridToggle4;
#X obj 234 648 int;
#X obj 1720 643 s gridToggle5;
#X obj 234 678 int;
#X obj 1720 673 s gridToggle6;
#X obj 234 708 int;
#X obj 1720 703 s gridToggle7;
#X obj 234 738 int;
#X obj 1720 733 s gridToggle8;
#X obj 234 768 int;
#X obj 1720 763 s gridToggle9;
#X obj 234 798 int;
#X obj 1720 793 s gridToggle10;
#X obj 234 828 int;
#X obj 1720 823 s gridToggle11;
#X obj 234 858 int;
#X obj 1720 853 s gridToggle12;
#X obj 234 888 int;
#X obj 1720 883 s gridToggle13;
#X obj 234 918 int;
#X obj 1720 913 s gridToggle14;
#X obj 234 948 int;
#X obj 1720 943 s gridToggle15;
#X obj 234 978 int;
#X obj 1720 973 s gridToggle16;
#X obj 234 1008 int;
#X obj 1720 1003 s gridToggle17;
#X obj 234 1038 int;
#X obj 1720 1033 s gridToggle18;
#X obj 234 1068 int;
#X obj 1720 1063 s gridToggle19;
#X obj 234 1098 int;
#X obj 1720 1093 s gridToggle20;
#X obj 234 1128 int;
#X obj 1720 1123 s gridToggle21;
#X obj 234 1158 int;
#X obj 1720 1153 s gridToggle22;
#X obj 234 1188 int;
#X obj 1720 1183 s gridToggle23;
#X obj 234 1218 int;
#X obj 1720 1213 s gridToggle24;
#X obj 234 1248 int;
#X obj 1720 1243 s gridButton1;
#X obj 234 1278 int;
#X obj 1720 1273 s gridButton2;
#X obj 234 1308 int;
#X obj 1720 1303 s gridButton3;
#X obj 234 1338 int;
#X obj 1720 1333 s gridButton4;
#X obj 234 1368 int;
#X obj 1720 1363 s gridButton5;
#X obj 234 1398 int;
#X obj 1720 1393 s gridButton6;
#X obj 234 1428 int;
#X obj 1720 1423 s gridButton7;
#X obj 234 1458 int;
#X obj 1720 1453 s gridButton8;
#X obj 234 1488 int;
#X obj 1720 1483 s gridButton9;
#X obj 234 1518 int;
#X obj 1720 1513 s gridButton10;
#X obj 234 1548 int;
#X obj 1720 1543 s gridButton11;
#X obj 234 1578 int;
#X obj 1720 1573 s gridButton12;
#X obj 234 1608 int;
#X obj 1720 1603 s gridButton13;
#X obj 234 1638 int;
#X obj 1720 1633 s gridButton14;
#X obj 234 1668 int;
#X obj 1720 1663 s gridButton15;
#X obj 234 1698 int;
#X obj 1720 1693 s gridButton16;
#X obj 234 1728 int;
#X obj 1720 1723 s gridButton17;
#X obj 234 1758 int;
#X obj 1720 1753 s gridButton18;
#X obj 234 1788 int;
#X obj 1720 1783 s gridButton19;
#X obj 234 1818 int;
#X obj 1720 1813 s gridButton20;
#X obj 234 1848 int;
#X obj 1720 1843 s gridButton21;
#X obj 234 1878 int;
#X obj 1720 1873 s gridButton22;
#X obj 234 1908 int;
#X obj 1720 1903 s gridButton23;
#X obj 234 1938 int;
#X obj 1720 1933 s gridButton24;
#X obj 23 136 print;
#X msg 18 7 listen 2000;
#X obj 17 35 netreceive -u -b;
#N canvas 4 64 1920 966 master 1;
#X obj 158 46 r~ kick_out;
#X obj 156 89 *~ 0.33;
#X obj 178 144 r~ snare_out;
#X obj 179 197 *~ 0.33;
#X obj 50 174 r~ hat_out;
#X obj 93 233 *~ 0.33;
#X obj 157 273 +~;
#X obj 157 303 +~;
#X obj 157 333 +~;
#X obj 452 112 r~ synth_out1;
#X obj 452 142 *~ 0.33;
#X obj 476 185 r~ synth_out2;
#X obj 469 240 *~ 0.33;
#X obj 294 200 r~ synth_out3;
#X obj 311 239 *~ 0.33;
#X obj 452 292 +~;
#X obj 452 322 +~;
#X obj 253 469 +~;
#X obj 284 484 r slider1;
#X obj 280 524 sig~;
#X obj 253 559 *~;
#X obj 445 570 dac~ 1 2;
#X obj 258 297 r~ piano_out;
#X obj 256 334 *~ 0.33;
#X obj 270 398 +~;
#X obj 253 608 s~ master_mix;
#X obj 440 520 r~ master_with_fx;
#X connect 0 0 1 0;
#X connect 1 0 6 0;
#X connect 2 0 3 0;
#X connect 3 0 6 1;
#X connect 4 0 5 0;
#X connect 5 0 7 0;
#X connect 6 0 7 1;
#X connect 7 0 8 0;
#X connect 8 0 17 0;
#X connect 9 0 10 0;
#X connect 10 0 15 0;
#X connect 11 0 12 0;
#X connect 12 0 15 1;
#X connect 13 0 14 0;
#X connect 14 0 16 0;
#X connect 15 0 16 1;
#X connect 16 0 24 1;
#X connect 17 0 20 0;
#X connect 18 0 19 0;
#X connect 19 0 20 1;
#X connect 20 0 25 0;
#X connect 22 0 23 0;
#X connect 23 0 24 0;
#X connect 24 0 17 1;
#X connect 26 0 21 0;
#X restore 1882 144 pd master;
#X text 1878 94 -------------------------------------------------------------------------------------------------------------------------------------------------------------, f 164;
#N canvas 4 0 1920 966 drums 0;
#X obj 54 50 r button1;
#X obj 54 80 bng 15 250 50 0 empty empty empty 17 7 0 10 #fcfcfc #000000 #000000;
#X obj 54 110 t b b;
#X obj 54 180 vline~;
#X msg 54 150 1 \, 2 2 \, 0 457 5;
#X obj 54 220 *~;
#X obj 104 180 osc~ 55;
#X obj 54 260 lop~ 1000;
#X obj 54 300 *~ 0.7;
#X obj 127 422 s~ kick_out;
#X obj 189 106 delay 5;
#X obj 192 137 bng 15 250 50 0 empty empty empty 17 7 0 10 #fcfcfc #000000 #000000;
#X obj 190 197 vline~;
#X msg 190 172 0.5 \, 0.8 5 \, 0.5 60 5 \, 0 1 65;
#X obj 190 227 *~;
#X obj 240 197 osc~ 1500;
#X obj 190 257 lop~ 400;
#X obj 190 287 *~ 0.5;
#X obj 759 80 bng 15 250 50 0 empty empty empty 17 7 0 10 #fcfcfc #000000 #000000;
#X obj 759 110 t b;
#X msg 759 140 150;
#X obj 759 170 t b f;
#X obj 756 277 line~;
#X obj 756 307 pow~ 4;
#X obj 756 337 *~;
#X obj 859 200 noise~;
#X obj 856 277 hip~ 8000;
#X obj 856 307 hip~ 8000;
#X obj 756 397 s~ hat_out;
#X obj 757 212 pack f f;
#X msg 756 252 1 \, 0 \$2;
#X obj 759 50 r button3;
#X obj 756 367 *~ 6;
#X obj 457 90 bng 15 250 50 0 empty empty empty 17 7 0 10 #fcfcfc #000000 #000000;
#X obj 457 120 t b b;
#X msg 457 150 1 \, 0 150;
#X obj 457 180 line~;
#X obj 457 210 *~;
#X obj 507 180 osc~ 180;
#X obj 457 240 *~;
#X obj 506 207 osc~ 330;
#X msg 607 150 1 \, 0 100;
#X obj 607 180 line~;
#X obj 607 210 *~;
#X obj 657 180 noise~;
#X obj 607 240 bp~ 3000 10;
#X obj 607 270 *~ 3;
#X obj 457 270 +~;
#X obj 457 330 s~ snare_out;
#X obj 457 60 r button2;
#X obj 457 300 *~ 2;
#X connect 0 0 1 0;
#X connect 1 0 2 0;
#X connect 2 0 4 0;
#X connect 2 1 10 0;
#X connect 3 0 5 0;
#X connect 4 0 3 0;
#X connect 5 0 7 0;
#X connect 6 0 5 1;
#X connect 7 0 8 0;
#X connect 8 0 9 0;
#X connect 10 0 11 0;
#X connect 11 0 13 0;
#X connect 12 0 14 0;
#X connect 13 0 12 0;
#X connect 14 0 16 0;
#X connect 15 0 14 1;
#X connect 16 0 17 0;
#X connect 17 0 9 0;
#X connect 18 0 19 0;
#X connect 19 0 20 0;
#X connect 20 0 21 0;
#X connect 21 0 29 0;
#X connect 21 1 29 1;
#X connect 22 0 23 0;
#X connect 23 0 24 0;
#X connect 24 0 32 0;
#X connect 25 0 26 0;
#X connect 26 0 27 0;
#X connect 27 0 24 1;
#X connect 29 0 30 0;
#X connect 30 0 22 0;
#X connect 31 0 18 0;
#X connect 32 0 28 0;
#X connect 33 0 34 0;
#X connect 34 0 35 0;
#X connect 34 1 41 0;
#X connect 35 0 36 0;
#X connect 36 0 37 0;
#X connect 36 0 39 0;
#X connect 37 0 39 1;
#X connect 38 0 37 1;
#X connect 39 0 47 0;
#X connect 40 0 37 1;
#X connect 41 0 42 0;
#X connect 42 0 43 0;
#X connect 43 0 45 0;
#X connect 44 0 43 1;
#X connect 45 0 46 0;
#X connect 46 0 47 1;
#X connect 47 0 50 0;
#X connect 49 0 33 0;
#X connect 50 0 48 0;
#X restore 2070 146 pd drums;
#N canvas 1306 356 450 229 synth1 0;
#X obj 44 36 r slider2;
#X obj 53 179 sig~;
#X obj 54 222 osc~;
#X obj 50 263 *~;
#X obj 217 88 sig~;
#X obj 51 88 * 800;
#X obj 50 131 + 200;
#X obj 215 43 r toggle1;
#X obj 40 320 s~ synth_out1;
#X connect 0 0 5 0;
#X connect 1 0 2 0;
#X connect 2 0 3 0;
#X connect 3 0 8 0;
#X connect 4 0 3 1;
#X connect 5 0 6 0;
#X connect 6 0 1 0;
#X connect 7 0 4 0;
#X restore 1976 144 pd synth1;
#N canvas 1281 0 450 812 synth2 0;
#X obj 53 179 sig~;
#X obj 54 222 osc~;
#X obj 217 88 sig~;
#X obj 44 36 r slider3;
#X obj 51 88 * 150;
#X obj 50 131 + 50;
#X obj 56 356 s~ synth_out2;
#X obj 57 309 lop~ 400;
#X obj 215 43 r toggle2;
#X obj 54 267 *~;
#X connect 0 0 1 0;
#X connect 1 0 9 0;
#X connect 2 0 9 1;
#X connect 3 0 4 0;
#X connect 4 0 5 0;
#X connect 5 0 0 0;
#X connect 7 0 6 0;
#X connect 8 0 2 0;
#X connect 9 0 7 0;
#X restore 1976 178 pd synth2;
#X text 2075 162 percu;
#N canvas 64 64 450 204 synth3 0;
#X obj 44 36 r slider4;
#X obj 53 179 sig~;
#X obj 54 222 phasor~;
#X obj 50 263 *~;
#X obj 217 88 sig~;
#X obj 51 88 * 400;
#X obj 50 131 + 80;
#X obj 215 43 r toggle3;
#X obj 40 320 s~ synth_out3;
#X connect 0 0 5 0;
#X connect 1 0 2 0;
#X connect 2 0 3 0;
#X connect 3 0 8 0;
#X connect 4 0 3 1;
#X connect 5 0 6 0;
#X connect 6 0 1 0;
#X connect 7 0 4 0;
#X restore 1974 218 pd synth3;
#N canvas 0 0 1920 966 piano 0;
#X obj 100 50 r gridButton1;
#X obj 100 110 mtof;
#X obj 100 140 sig~;
#X obj 100 170 osc~;
#X obj 100 200 *~;
#X msg 100 80 60;
#X obj 200 50 r gridButton2;
#X msg 200 80 61;
#X obj 200 110 mtof;
#X obj 200 140 sig~;
#X obj 200 170 osc~;
#X obj 200 200 *~;
#X obj 300 50 r gridButton3;
#X msg 300 80 62;
#X obj 300 110 mtof;
#X obj 300 140 sig~;
#X obj 300 170 osc~;
#X obj 300 200 *~;
#X obj 400 50 r gridButton4;
#X msg 400 80 63;
#X obj 400 110 mtof;
#X obj 400 140 sig~;
#X obj 400 170 osc~;
#X obj 400 200 *~;
#X obj 500 50 r gridButton5;
#X msg 500 80 64;
#X obj 500 110 mtof;
#X obj 500 140 sig~;
#X obj 500 170 osc~;
#X obj 500 200 *~;
#X obj 600 50 r gridButton6;
#X msg 600 80 65;
#X obj 600 110 mtof;
#X obj 600 140 sig~;
#X obj 600 170 osc~;
#X obj 600 200 *~;
#X obj 700 50 r gridButton7;
#X msg 700 80 66;
#X obj 700 110 mtof;
#X obj 700 140 sig~;
#X obj 700 170 osc~;
#X obj 700 200 *~;
#X obj 800 50 r gridButton8;
#X msg 800 80 67;
#X obj 800 110 mtof;
#X obj 800 140 sig~;
#X obj 800 170 osc~;
#X obj 800 200 *~;
#X obj 900 50 r gridButton9;
#X msg 900 80 68;
#X obj 900 110 mtof;
#X obj 900 140 sig~;
#X obj 900 170 osc~;
#X obj 900 200 *~;
#X obj 1000 50 r gridButton10;
#X msg 1000 80 69;
#X obj 1000 110 mtof;
#X obj 1000 140 sig~;
#X obj 1000 170 osc~;
#X obj 1000 200 *~;
#X obj 1100 50 r gridButton11;
#X msg 1100 80 70;
#X obj 1100 110 mtof;
#X obj 1100 140 sig~;
#X obj 1100 170 osc~;
#X obj 1100 200 *~;
#X obj 1214 46 r gridButton12;
#X msg 1214 76 71;
#X obj 1214 106 mtof;
#X obj 1214 136 sig~;
#X obj 1214 166 osc~;
#X obj 1214 196 *~;
#X obj 100 350 r gridButton13;
#X msg 100 380 72;
#X obj 100 410 mtof;
#X obj 100 440 sig~;
#X obj 100 470 osc~;
#X obj 100 500 *~;
#X obj 200 350 r gridButton14;
#X msg 200 380 73;
#X obj 200 410 mtof;
#X obj 200 440 sig~;
#X obj 200 470 osc~;
#X obj 200 500 *~;
#X obj 300 350 r gridButton15;
#X msg 300 380 74;
#X obj 300 410 mtof;
#X obj 300 440 sig~;
#X obj 300 470 osc~;
#X obj 300 500 *~;
#X obj 400 350 r gridButton16;
#X msg 400 380 75;
#X obj 400 410 mtof;
#X obj 400 440 sig~;
#X obj 400 470 osc~;
#X obj 400 500 *~;
#X obj 500 350 r gridButton17;
#X msg 500 380 76;
#X obj 500 410 mtof;
#X obj 500 440 sig~;
#X obj 500 470 osc~;
#X obj 500 500 *~;
#X obj 600 350 r gridButton18;
#X msg 600 380 77;
#X obj 600 410 mtof;
#X obj 600 440 sig~;
#X obj 600 470 osc~;
#X obj 600 500 *~;
#X obj 700 350 r gridButton19;
#X msg 700 380 78;
#X obj 700 410 mtof;
#X obj 700 440 sig~;
#X obj 700 470 osc~;
#X obj 700 500 *~;
#X obj 800 350 r gridButton20;
#X msg 800 380 79;
#X obj 800 410 mtof;
#X obj 800 440 sig~;
#X obj 800 470 osc~;
#X obj 800 500 *~;
#X obj 900 350 r gridButton21;
#X msg 900 380 80;
#X obj 900 410 mtof;
#X obj 900 440 sig~;
#X obj 900 470 osc~;
#X obj 900 500 *~;
#X obj 1017 351 r gridButton22;
#X msg 1017 381 81;
#X obj 1017 411 mtof;
#X obj 1017 441 sig~;
#X obj 1017 471 osc~;
#X obj 1017 501 *~;
#X obj 1131 353 r gridButton23;
#X msg 1131 383 82;
#X obj 1131 413 mtof;
#X obj 1131 443 sig~;
#X obj 1131 473 osc~;
#X obj 1131 503 *~;
#X obj 1254 350 r gridButton24;
#X msg 1257 384 83;
#X obj 1257 414 mtof;
#X obj 1257 444 sig~;
#X obj 1257 474 osc~;
#X obj 1257 504 *~;
#X obj 150 600 +~;
#X obj 150 630 +~;
#X obj 150 660 +~;
#X obj 150 690 +~;
#X obj 150 720 +~;
#X obj 150 750 +~;
#X obj 150 780 +~;
#X obj 150 810 +~;
#X obj 150 840 +~;
#X obj 150 870 +~;
#X obj 150 900 +~;
#X obj 150 930 +~;
#X obj 150 960 +~;
#X obj 150 990 +~;
#X obj 150 1020 +~;
#X obj 150 1050 +~;
#X obj 150 1080 +~;
#X obj 150 1110 +~;
#X obj 150 1140 +~;
#X obj 150 1170 +~;
#X obj 150 1200 +~;
#X obj 150 1230 +~;
#X obj 150 1260 +~;
#X obj 150 1320 s~ piano_out;
#X obj 150 105 vline~;
#X msg 150 80 1 \, 0 400;
#X obj 250 105 vline~;
#X msg 250 80 1 \, 0 400;
#X obj 350 105 vline~;
#X msg 350 80 1 \, 0 400;
#X obj 450 105 vline~;
#X msg 450 80 1 \, 0 400;
#X obj 550 105 vline~;
#X msg 550 80 1 \, 0 400;
#X obj 650 105 vline~;
#X msg 650 80 1 \, 0 400;
#X obj 750 105 vline~;
#X msg 750 80 1 \, 0 400;
#X obj 850 105 vline~;
#X msg 850 80 1 \, 0 400;
#X obj 950 105 vline~;
#X msg 950 80 1 \, 0 400;
#X obj 1050 105 vline~;
#X msg 1050 80 1 \, 0 400;
#X obj 1150 105 vline~;
#X msg 1150 80 1 \, 0 400;
#X obj 1264 101 vline~;
#X msg 1264 76 1 \, 0 400;
#X obj 150 405 vline~;
#X msg 150 380 1 \, 0 400;
#X obj 250 405 vline~;
#X msg 250 380 1 \, 0 400;
#X obj 350 405 vline~;
#X msg 350 380 1 \, 0 400;
#X obj 450 405 vline~;
#X msg 450 380 1 \, 0 400;
#X obj 550 405 vline~;
#X msg 550 380 1 \, 0 400;
#X obj 650 405 vline~;
#X msg 650 380 1 \, 0 400;
#X obj 750 405 vline~;
#X msg 750 380 1 \, 0 400;
#X obj 850 405 vline~;
#X msg 850 380 1 \, 0 400;
#X obj 950 405 vline~;
#X msg 950 380 1 \, 0 400;
#X obj 1067 406 vline~;
#X msg 1067 381 1 \, 0 400;
#X obj 1181 408 vline~;
#X msg 1181 383 1 \, 0 400;
#X obj 1307 409 vline~;
#X msg 1307 384 1 \, 0 400;
#X obj 150 1290 *~ 1;
#X obj 1381 405 vline~;
#X msg 1381 380 1 \, 0 400;
#X connect 0 0 5 0;
#X connect 0 0 171 0;
#X connect 1 0 2 0;
#X connect 2 0 3 0;
#X connect 3 0 4 0;
#X connect 4 0 144 0;
#X connect 5 0 1 0;
#X connect 6 0 7 0;
#X connect 6 0 173 0;
#X connect 7 0 8 0;
#X connect 8 0 9 0;
#X connect 9 0 10 0;
#X connect 10 0 11 0;
#X connect 11 0 144 1;
#X connect 12 0 13 0;
#X connect 12 0 175 0;
#X connect 13 0 14 0;
#X connect 14 0 15 0;
#X connect 15 0 16 0;
#X connect 16 0 17 0;
#X connect 17 0 145 0;
#X connect 18 0 19 0;
#X connect 18 0 177 0;
#X connect 19 0 20 0;
#X connect 20 0 21 0;
#X connect 21 0 22 0;
#X connect 22 0 23 0;
#X connect 23 0 145 1;
#X connect 24 0 25 0;
#X connect 24 0 179 0;
#X connect 25 0 26 0;
#X connect 26 0 27 0;
#X connect 27 0 28 0;
#X connect 28 0 29 0;
#X connect 29 0 146 0;
#X connect 30 0 31 0;
#X connect 30 0 181 0;
#X connect 31 0 32 0;
#X connect 32 0 33 0;
#X connect 33 0 34 0;
#X connect 34 0 35 0;
#X connect 35 0 146 1;
#X connect 36 0 37 0;
#X connect 36 0 183 0;
#X connect 37 0 38 0;
#X connect 38 0 39 0;
#X connect 39 0 40 0;
#X connect 40 0 41 0;
#X connect 41 0 147 0;
#X connect 42 0 43 0;
#X connect 42 0 185 0;
#X connect 43 0 44 0;
#X connect 44 0 45 0;
#X connect 45 0 46 0;
#X connect 46 0 47 0;
#X connect 47 0 147 1;
#X connect 48 0 49 0;
#X connect 48 0 187 0;
#X connect 49 0 50 0;
#X connect 50 0 51 0;
#X connect 51 0 52 0;
#X connect 52 0 53 0;
#X connect 53 0 148 0;
#X connect 54 0 55 0;
#X connect 54 0 189 0;
#X connect 55 0 56 0;
#X connect 56 0 57 0;
#X connect 57 0 58 0;
#X connect 58 0 59 0;
#X connect 59 0 148 1;
#X connect 60 0 61 0;
#X connect 60 0 191 0;
#X connect 61 0 62 0;
#X connect 62 0 63 0;
#X connect 63 0 64 0;
#X connect 64 0 65 0;
#X connect 65 0 149 0;
#X connect 66 0 67 0;
#X connect 66 0 193 0;
#X connect 67 0 68 0;
#X connect 68 0 69 0;
#X connect 69 0 70 0;
#X connect 70 0 71 0;
#X connect 71 0 149 1;
#X connect 72 0 73 0;
#X connect 72 0 195 0;
#X connect 73 0 74 0;
#X connect 74 0 75 0;
#X connect 75 0 76 0;
#X connect 76 0 77 0;
#X connect 77 0 150 0;
#X connect 78 0 79 0;
#X connect 78 0 197 0;
#X connect 79 0 80 0;
#X connect 80 0 81 0;
#X connect 81 0 82 0;
#X connect 82 0 83 0;
#X connect 83 0 150 1;
#X connect 84 0 85 0;
#X connect 84 0 199 0;
#X connect 85 0 86 0;
#X connect 86 0 87 0;
#X connect 87 0 88 0;
#X connect 88 0 89 0;
#X connect 89 0 151 0;
#X connect 90 0 91 0;
#X connect 90 0 201 0;
#X connect 91 0 92 0;
#X connect 92 0 93 0;
#X connect 93 0 94 0;
#X connect 94 0 95 0;
#X connect 95 0 151 1;
#X connect 96 0 97 0;
#X connect 96 0 203 0;
#X connect 97 0 98 0;
#X connect 98 0 99 0;
#X connect 99 0 100 0;
#X connect 100 0 101 0;
#X connect 101 0 152 0;
#X connect 102 0 103 0;
#X connect 102 0 205 0;
#X connect 103 0 104 0;
#X connect 104 0 105 0;
#X connect 105 0 106 0;
#X connect 106 0 107 0;
#X connect 107 0 152 1;
#X connect 108 0 109 0;
#X connect 108 0 207 0;
#X connect 109 0 110 0;
#X connect 110 0 111 0;
#X connect 111 0 112 0;
#X connect 112 0 113 0;
#X connect 113 0 153 0;
#X connect 114 0 115 0;
#X connect 114 0 209 0;
#X connect 115 0 116 0;
#X connect 116 0 117 0;
#X connect 117 0 118 0;
#X connect 118 0 119 0;
#X connect 119 0 153 1;
#X connect 120 0 121 0;
#X connect 120 0 211 0;
#X connect 121 0 122 0;
#X connect 122 0 123 0;
#X connect 123 0 124 0;
#X connect 124 0 125 0;
#X connect 125 0 154 0;
#X connect 126 0 127 0;
#X connect 126 0 213 0;
#X connect 127 0 128 0;
#X connect 128 0 129 0;
#X connect 129 0 130 0;
#X connect 130 0 131 0;
#X connect 131 0 154 1;
#X connect 132 0 133 0;
#X connect 132 0 215 0;
#X connect 133 0 134 0;
#X connect 134 0 135 0;
#X connect 135 0 136 0;
#X connect 136 0 137 0;
#X connect 137 0 155 0;
#X connect 138 0 139 0;
#X connect 138 0 218 0;
#X connect 139 0 140 0;
#X connect 140 0 141 0;
#X connect 141 0 142 0;
#X connect 142 0 143 0;
#X connect 143 0 155 1;
#X connect 144 0 145 0;
#X connect 145 0 146 0;
#X connect 146 0 147 0;
#X connect 147 0 148 0;
#X connect 148 0 149 0;
#X connect 149 0 150 0;
#X connect 150 0 151 0;
#X connect 151 0 152 0;
#X connect 152 0 153 0;
#X connect 153 0 154 0;
#X connect 154 0 155 0;
#X connect 155 0 156 0;
#X connect 156 0 157 0;
#X connect 157 0 158 0;
#X connect 158 0 159 0;
#X connect 159 0 160 0;
#X connect 160 0 161 0;
#X connect 161 0 162 0;
#X connect 162 0 163 0;
#X connect 163 0 164 0;
#X connect 164 0 165 0;
#X connect 165 0 166 0;
#X connect 166 0 216 0;
#X connect 170 0 4 1;
#X connect 171 0 170 0;
#X connect 172 0 11 1;
#X connect 173 0 172 0;
#X connect 174 0 17 1;
#X connect 175 0 174 0;
#X connect 176 0 23 1;
#X connect 177 0 176 0;
#X connect 178 0 29 1;
#X connect 179 0 178 0;
#X connect 180 0 35 1;
#X connect 181 0 180 0;
#X connect 182 0 41 1;
#X connect 183 0 182 0;
#X connect 184 0 47 1;
#X connect 185 0 184 0;
#X connect 186 0 53 1;
#X connect 187 0 186 0;
#X connect 188 0 59 1;
#X connect 189 0 188 0;
#X connect 190 0 65 1;
#X connect 191 0 190 0;
#X connect 192 0 71 1;
#X connect 193 0 192 0;
#X connect 194 0 77 1;
#X connect 195 0 194 0;
#X connect 196 0 83 1;
#X connect 197 0 196 0;
#X connect 198 0 89 1;
#X connect 199 0 198 0;
#X connect 200 0 95 1;
#X connect 201 0 200 0;
#X connect 202 0 101 1;
#X connect 203 0 202 0;
#X connect 204 0 107 1;
#X connect 205 0 204 0;
#X connect 206 0 113 1;
#X connect 207 0 206 0;
#X connect 208 0 119 1;
#X connect 209 0 208 0;
#X connect 210 0 125 1;
#X connect 211 0 210 0;
#X connect 212 0 131 1;
#X connect 213 0 212 0;
#X connect 214 0 137 1;
#X connect 215 0 214 0;
#X connect 216 0 167 0;
#X connect 217 0 143 1;
#X connect 218 0 217 0;
#X restore 2068 186 pd piano;
#N canvas 0 57 1920 966 slider2d 0;
#X obj 153 50 r slider2Dx;
#X obj 153 80 * 10000;
#X obj 153 110 + 200;
#X obj 153 140 s filter-freq;
#X obj 353 50 r slider2Dy;
#X obj 353 80 * 0.8;
#X obj 353 110 s fx-amount;
#X obj 526 125 r~ kick_out;
#X obj 526 155 r~ hat_out;
#X obj 526 185 r~ snare_out;
#X obj 526 215 r~ piano_out;
#X obj 526 245 r~ synth_out1;
#X obj 526 275 r~ synth_out2;
#X obj 526 305 r~ synth_out3;
#X obj 253 250 +~;
#X obj 253 280 +~;
#X obj 253 310 +~;
#X obj 253 340 +~;
#X obj 253 370 +~;
#X obj 253 400 +~;
#X obj 262 440 delwrite~ fx-delay 2000;
#X obj 490 396 delread~ fx-delay 300;
#X obj 403 480 *~;
#X obj 486 429 r fx-amount;
#X obj 449 456 sig~;
#X obj 253 500 +~;
#X obj 253 550 lop~;
#X obj 303 520 r filter-freq;
#X obj 303 545 sig~;
#X obj 253 600 s~ master_with_fx;
#X connect 0 0 1 0;
#X connect 1 0 2 0;
#X connect 2 0 3 0;
#X connect 4 0 5 0;
#X connect 5 0 6 0;
#X connect 7 0 14 0;
#X connect 8 0 14 1;
#X connect 9 0 15 0;
#X connect 10 0 15 1;
#X connect 11 0 16 0;
#X connect 12 0 16 1;
#X connect 13 0 17 0;
#X connect 14 0 15 0;
#X connect 15 0 16 0;
#X connect 16 0 17 0;
#X connect 17 0 18 0;
#X connect 18 0 19 0;
#X connect 19 0 20 0;
#X connect 19 0 25 0;
#X connect 21 0 22 0;
#X connect 22 0 25 1;
#X connect 23 0 24 0;
#X connect 24 0 22 1;
#X connect 25 0 26 0;
#X connect 26 0 29 0;
#X connect 27 0 28 0;
#X connect 28 0 26 1;
#X restore 2137 146 pd slider2d;
#N canvas 0 0 1920 966 bateria 0;
#X obj 100 50 r gridToggle1;
#X obj 200 50 r gridToggle2;
#X obj 300 50 r gridToggle3;
#X obj 400 50 r gridToggle4;
#X obj 500 50 r gridToggle5;
#X obj 600 50 r gridToggle6;
#X obj 700 50 r gridToggle7;
#X obj 800 50 r gridToggle8;
#X obj 100 150 r gridToggle9;
#X obj 200 150 r gridToggle10;
#X obj 300 150 r gridToggle11;
#X obj 400 150 r gridToggle12;
#X obj 500 150 r gridToggle13;
#X obj 600 150 r gridToggle14;
#X obj 700 150 r gridToggle15;
#X obj 800 150 r gridToggle16;
#X obj 100 250 r gridToggle17;
#X obj 200 250 r gridToggle18;
#X obj 300 250 r gridToggle19;
#X obj 400 250 r gridToggle20;
#X obj 500 250 r gridToggle21;
#X obj 600 250 r gridToggle22;
#X obj 700 250 r gridToggle23;
#X obj 800 250 r gridToggle24;
#X obj 1107 54 loadbang;
#X msg 1107 84 1;
#X obj 1107 114 metro 250;
#X obj 1107 144 f;
#X obj 1157 144 + 1;
#X obj 1107 174 mod 8;
#X obj 1107 204 sel 0 1 2 3 4 5 6 7;
#X obj 150 600 t b b b;
#X obj 250 600 t b b b;
#X obj 350 600 t b b b;
#X obj 450 600 t b b b;
#X obj 550 600 t b b b;
#X obj 650 600 t b b b;
#X obj 750 600 t b b b;
#X obj 850 600 t b b b;
#X obj 150 650 spigot;
#X obj 250 650 spigot;
#X obj 350 650 spigot;
#X obj 450 650 spigot;
#X obj 550 650 spigot;
#X obj 650 650 spigot;
#X obj 750 650 spigot;
#X obj 850 650 spigot;
#X obj 150 700 s button1;
#X obj 250 700 s button1;
#X obj 350 700 s button1;
#X obj 450 700 s button1;
#X obj 550 700 s button1;
#X obj 650 700 s button1;
#X obj 750 700 s button1;
#X obj 850 700 s button1;
#X obj 150 750 spigot;
#X obj 250 750 spigot;
#X obj 350 750 spigot;
#X obj 450 750 spigot;
#X obj 550 750 spigot;
#X obj 650 750 spigot;
#X obj 750 750 spigot;
#X obj 850 750 spigot;
#X obj 150 800 s button2;
#X obj 250 800 s button2;
#X obj 350 800 s button2;
#X obj 450 800 s button2;
#X obj 550 800 s button2;
#X obj 650 800 s button2;
#X obj 750 800 s button2;
#X obj 850 800 s button2;
#X obj 150 850 spigot;
#X obj 250 850 spigot;
#X obj 350 850 spigot;
#X obj 450 850 spigot;
#X obj 550 850 spigot;
#X obj 650 850 spigot;
#X obj 750 850 spigot;
#X obj 850 850 spigot;
#X obj 150 900 s button3;
#X obj 250 900 s button3;
#X obj 350 900 s button3;
#X obj 450 900 s button3;
#X obj 550 900 s button3;
#X obj 650 900 s button3;
#X obj 750 900 s button3;
#X obj 850 900 s button3;
#X connect 0 0 39 1;
#X connect 1 0 40 1;
#X connect 2 0 41 1;
#X connect 3 0 42 1;
#X connect 4 0 43 1;
#X connect 5 0 44 1;
#X connect 6 0 45 1;
#X connect 7 0 46 1;
#X connect 8 0 55 1;
#X connect 9 0 56 1;
#X connect 10 0 57 1;
#X connect 11 0 58 1;
#X connect 12 0 59 1;
#X connect 13 0 60 1;
#X connect 14 0 61 1;
#X connect 15 0 62 1;
#X connect 16 0 71 1;
#X connect 17 0 72 1;
#X connect 18 0 73 1;
#X connect 19 0 74 1;
#X connect 20 0 75 1;
#X connect 21 0 76 1;
#X connect 22 0 77 1;
#X connect 23 0 78 1;
#X connect 24 0 25 0;
#X connect 25 0 26 0;
#X connect 26 0 27 0;
#X connect 27 0 28 0;
#X connect 27 0 29 0;
#X connect 28 0 27 1;
#X connect 29 0 30 0;
#X connect 30 0 31 0;
#X connect 30 1 32 0;
#X connect 30 2 33 0;
#X connect 30 3 34 0;
#X connect 30 4 35 0;
#X connect 30 5 36 0;
#X connect 30 6 37 0;
#X connect 30 7 38 0;
#X connect 31 0 39 0;
#X connect 31 1 55 0;
#X connect 31 2 71 0;
#X connect 32 0 40 0;
#X connect 32 1 56 0;
#X connect 32 2 72 0;
#X connect 33 0 41 0;
#X connect 33 1 57 0;
#X connect 33 2 73 0;
#X connect 34 0 42 0;
#X connect 34 1 58 0;
#X connect 34 2 74 0;
#X connect 35 0 43 0;
#X connect 35 1 59 0;
#X connect 35 2 75 0;
#X connect 36 0 44 0;
#X connect 36 1 60 0;
#X connect 36 2 76 0;
#X connect 37 0 45 0;
#X connect 37 1 61 0;
#X connect 37 2 77 0;
#X connect 38 0 46 0;
#X connect 38 1 62 0;
#X connect 38 2 78 0;
#X connect 39 0 47 0;
#X connect 40 0 48 0;
#X connect 41 0 49 0;
#X connect 42 0 50 0;
#X connect 43 0 51 0;
#X connect 44 0 52 0;
#X connect 45 0 53 0;
#X connect 46 0 54 0;
#X connect 55 0 63 0;
#X connect 56 0 64 0;
#X connect 57 0 65 0;
#X connect 58 0 66 0;
#X connect 59 0 67 0;
#X connect 60 0 68 0;
#X connect 61 0 69 0;
#X connect 62 0 70 0;
#X connect 71 0 79 0;
#X connect 72 0 80 0;
#X connect 73 0 81 0;
#X connect 74 0 82 0;
#X connect 75 0 83 0;
#X connect 76 0 84 0;
#X connect 77 0 85 0;
#X connect 78 0 86 0;
#X restore 2137 186 pd bateria;
#X connect 0 0 1 0;
#X connect 1 0 2 0;
#X connect 1 0 123 0;
#X connect 2 0 3 0;
#X connect 2 1 5 0;
#X connect 2 2 7 0;
#X connect 2 3 9 0;
#X connect 2 4 11 0;
#X connect 2 5 13 0;
#X connect 2 6 15 0;
#X connect 2 7 17 0;
#X connect 2 8 19 0;
#X connect 2 9 21 0;
#X connect 2 10 23 0;
#X connect 2 11 25 0;
#X connect 2 12 27 0;
#X connect 2 13 29 0;
#X connect 2 14 31 0;
#X connect 2 15 33 0;
#X connect 2 16 35 0;
#X connect 2 17 37 0;
#X connect 2 18 39 0;
#X connect 2 19 41 0;
#X connect 2 20 43 0;
#X connect 2 21 45 0;
#X connect 2 22 47 0;
#X connect 2 23 49 0;
#X connect 2 24 51 0;
#X connect 2 25 53 0;
#X connect 2 26 55 0;
#X connect 2 27 57 0;
#X connect 2 28 59 0;
#X connect 2 29 61 0;
#X connect 2 30 63 0;
#X connect 2 31 65 0;
#X connect 2 32 67 0;
#X connect 2 33 69 0;
#X connect 2 34 71 0;
#X connect 2 35 73 0;
#X connect 2 36 75 0;
#X connect 2 37 77 0;
#X connect 2 38 79 0;
#X connect 2 39 81 0;
#X connect 2 40 83 0;
#X connect 2 41 85 0;
#X connect 2 42 87 0;
#X connect 2 43 89 0;
#X connect 2 44 91 0;
#X connect 2 45 93 0;
#X connect 2 46 95 0;
#X connect 2 47 97 0;
#X connect 2 48 99 0;
#X connect 2 49 101 0;
#X connect 2 50 103 0;
#X connect 2 51 105 0;
#X connect 2 52 107 0;
#X connect 2 53 109 0;
#X connect 2 54 111 0;
#X connect 2 55 113 0;
#X connect 2 56 115 0;
#X connect 2 57 117 0;
#X connect 2 58 119 0;
#X connect 2 59 121 0;
#X connect 3 0 4 0;
#X connect 5 0 6 0;
#X connect 7 0 8 0;
#X connect 9 0 10 0;
#X connect 11 0 12 0;
#X connect 13 0 14 0;
#X connect 15 0 16 0;
#X connect 17 0 18 0;
#X connect 19 0 20 0;
#X connect 21 0 22 0;
#X connect 23 0 24 0;
#X connect 25 0 26 0;
#X connect 27 0 28 0;
#X connect 29 0 30 0;
#X connect 31 0 32 0;
#X connect 33 0 34 0;
#X connect 35 0 36 0;
#X connect 37 0 38 0;
#X connect 39 0 40 0;
#X connect 41 0 42 0;
#X connect 43 0 44 0;
#X connect 45 0 46 0;
#X connect 47 0 48 0;
#X connect 49 0 50 0;
#X connect 51 0 52 0;
#X connect 53 0 54 0;
#X connect 55 0 56 0;
#X connect 57 0 58 0;
#X connect 59 0 60 0;
#X connect 61 0 62 0;
#X connect 63 0 64 0;
#X connect 65 0 66 0;
#X connect 67 0 68 0;
#X connect 69 0 70 0;
#X connect 71 0 72 0;
#X connect 73 0 74 0;
#X connect 75 0 76 0;
#X connect 77 0 78 0;
#X connect 79 0 80 0;
#X connect 81 0 82 0;
#X connect 83 0 84 0;
#X connect 85 0 86 0;
#X connect 87 0 88 0;
#X connect 89 0 90 0;
#X connect 91 0 92 0;
#X connect 93 0 94 0;
#X connect 95 0 96 0;
#X connect 97 0 98 0;
#X connect 99 0 100 0;
#X connect 101 0 102 0;
#X connect 103 0 104 0;
#X connect 105 0 106 0;
#X connect 107 0 108 0;
#X connect 109 0 110 0;
#X connect 111 0 112 0;
#X connect 113 0 114 0;
#X connect 115 0 116 0;
#X connect 117 0 118 0;
#X connect 119 0 120 0;
#X connect 121 0 122 0;
#X connect 124 0 125 0;
#X connect 125 0 0 0;
